<?xml version="1.0" encoding="utf-8"?>
<!-- Generator: Adobe Illustrator 16.0.0, SVG Export Plug-In . SVG Version: 6.00 Build 0)  -->
<!DOCTYPE svg PUBLIC "-//W3C//DTD SVG 1.1//EN" "http://www.w3.org/Graphics/SVG/1.1/DTD/svg11.dtd">
<svg version="1.1" id="Layer_1" xmlns="http://www.w3.org/2000/svg" xmlns:xlink="http://www.w3.org/1999/xlink" x="0px" y="0px"
	 width="48px" height="48px" viewBox="0 0 48 48" enable-background="new 0 0 48 48" xml:space="preserve">
<path fill="#FFFFFF" d="M45,24h-6v21c0,1.659-1.341,3-3,3h-6l0,0V35c0-1.659-1.341-3-3-3h-6c-1.656,0-3,1.341-3,3v13l0,0h-6
	c-1.656,0-3-1.341-3-3V24H3l-3-3l0,0l0,0l0,0l0,0l0,0l0,0l0,0l0,0l0,0l0,0l0,0L22.968,0.902c0,0,0.387-0.358,1.032-0.358
	c0.626,0,1.034,0.361,1.034,0.361L48,21L45,24z"/>
</svg>
