<?xml version="1.0" encoding="utf-8"?>
<!-- Generator: Adobe Illustrator 16.0.0, SVG Export Plug-In . SVG Version: 6.00 Build 0)  -->
<!DOCTYPE svg PUBLIC "-//W3C//DTD SVG 1.1//EN" "http://www.w3.org/Graphics/SVG/1.1/DTD/svg11.dtd">
<svg version="1.1" id="Ebene_1" xmlns="http://www.w3.org/2000/svg" xmlns:xlink="http://www.w3.org/1999/xlink" x="0px" y="0px"
	 width="662.666px" height="646.084px" viewBox="0 0 662.666 646.084" enable-background="new 0 0 662.666 646.084"
	 xml:space="preserve">
<rect x="30.68" y="-51.808" fill="none" width="35.577" height="34.615"/>
<g>
	<path fill="#FFFFFF" d="M478.046,592.624c-55.608,23.697-103.805,31.597-169.609,31.597c-153.855,0-289.178-104.462-289.178-276.51
		c0-179.076,137.177-334.446,346.64-334.446c163.124,0,279.912,106.21,279.912,253.682c0,128.167-76.001,208.924-176.104,208.924
		c-43.562,0-75.072-21.069-79.707-67.593h-1.854c-28.731,44.771-70.437,67.593-119.56,67.593
		c-60.244,0-103.81-42.134-103.81-114.117c0-107.091,83.417-204.532,216.881-204.532c40.782,0,87.125,9.657,110.295,21.948
		l-27.808,162.39c-9.268,51.795-2.779,75.494,23.177,76.372c39.852,0.881,89.902-47.401,89.902-148.349
		c0-114.119-77.859-202.774-221.515-202.774c-141.806,0-266.004,105.343-266.004,273.002c0,146.595,99.169,229.987,237.273,229.987
		c47.265,0,97.315-9.657,134.388-28.091L478.046,592.624z M395.56,230.084c-7.414-1.752-16.682-3.513-28.733-3.513
		c-61.171,0-109.365,57.061-109.365,124.649c0,33.361,15.758,54.426,46.342,54.426c34.289,0,70.439-41.257,78.778-92.175
		L395.56,230.084z"/>
</g>
</svg>
