<?xml version="1.0" encoding="utf-8"?>
<!-- Generator: Adobe Illustrator 16.0.0, SVG Export Plug-In . SVG Version: 6.00 Build 0)  -->
<!DOCTYPE svg PUBLIC "-//W3C//DTD SVG 1.1//EN" "http://www.w3.org/Graphics/SVG/1.1/DTD/svg11.dtd">
<svg version="1.1" id="Ebene_1" xmlns="http://www.w3.org/2000/svg" xmlns:xlink="http://www.w3.org/1999/xlink" x="0px" y="0px"
	 width="525px" height="334px" viewBox="57.5 153.5 525 334" enable-background="new 57.5 153.5 525 334" xml:space="preserve">
<path fill="#FFFFFF" d="M539.428,288H100.572C80.384,288,64,302.337,64,320c0,17.664,16.384,32,36.571,32h438.856
	C559.653,352,576,337.664,576,320C576,302.337,559.653,288,539.428,288z M100.572,224h438.856C559.653,224,576,209.664,576,192
	s-16.348-32-36.572-32H100.572C80.384,160,64,174.336,64,192S80.384,224,100.572,224z M539.428,416H100.572
	C80.384,416,64,430.304,64,448c0,17.696,16.384,32,36.571,32h438.856C559.653,480,576,465.696,576,448
	C576,430.304,559.653,416,539.428,416z"/>
</svg>
