<?xml version="1.0" encoding="utf-8"?>
<!-- Generator: Adobe Illustrator 16.0.0, SVG Export Plug-In . SVG Version: 6.00 Build 0)  -->
<!DOCTYPE svg PUBLIC "-//W3C//DTD SVG 1.1//EN" "http://www.w3.org/Graphics/SVG/1.1/DTD/svg11.dtd">
<svg version="1.1" id="Ebene_1" xmlns="http://www.w3.org/2000/svg" xmlns:xlink="http://www.w3.org/1999/xlink" x="0px" y="0px"
	 width="57.75px" height="57.057px" viewBox="0 0 57.75 57.057" enable-background="new 0 0 57.75 57.057" xml:space="preserve">
<path fill="#4E5F70" d="M28.875,0.279c-15.602,0-28.25,12.647-28.25,28.25c0,15.602,12.648,28.25,28.25,28.25
	s28.25-12.648,28.25-28.25C57.125,12.926,44.477,0.279,28.875,0.279z M39.646,28.834L23.096,41.891
	c-0.117,0.094-0.279,0.111-0.414,0.048c-0.136-0.067-0.218-0.204-0.218-0.353v-6.029l8.521-6.723c0.188-0.15,0.188-0.465,0-0.615
	l-8.521-6.723V15.47c0-0.15,0.082-0.287,0.218-0.352c0.135-0.066,0.297-0.047,0.414,0.044l16.551,13.057
	C39.834,28.369,39.834,28.684,39.646,28.834z"/>
</svg>
