<?xml version="1.0" encoding="utf-8"?>
<!-- Generator: Adobe Illustrator 16.0.0, SVG Export Plug-In . SVG Version: 6.00 Build 0)  -->
<!DOCTYPE svg PUBLIC "-//W3C//DTD SVG 1.1//EN" "http://www.w3.org/Graphics/SVG/1.1/DTD/svg11.dtd">
<svg version="1.1" id="Ebene_1" xmlns="http://www.w3.org/2000/svg" xmlns:xlink="http://www.w3.org/1999/xlink" x="0px" y="0px"
	 width="57.75px" height="57.057px" viewBox="0 0 57.75 57.057" enable-background="new 0 0 57.75 57.057" xml:space="preserve">
<path fill="#4E5F70" d="M28.875,0.279c-15.602,0-28.25,12.647-28.25,28.25c0,15.602,12.648,28.25,28.25,28.25
	s28.25-12.648,28.25-28.25C57.125,12.926,44.477,0.279,28.875,0.279z M35.287,21.499l-8.521,6.723c-0.188,0.15-0.188,0.466,0,0.615
	l8.521,6.724v6.025c0,0.151-0.083,0.288-0.217,0.353c-0.135,0.065-0.297,0.047-0.414-0.044L18.105,28.836
	c-0.188-0.149-0.188-0.465,0-0.615l16.551-13.056c0.117-0.093,0.279-0.111,0.414-0.047c0.135,0.067,0.217,0.204,0.217,0.352V21.499z
	"/>
</svg>
